<?xml version="1.0" encoding="UTF-8"?>
<svg width="30px" height="28px" viewBox="0 0 30 28" version="1.1" xmlns="http://www.w3.org/2000/svg" xmlns:xlink="http://www.w3.org/1999/xlink">
    <!-- Generator: Sketch 46.2 (44496) - http://www.bohemiancoding.com/sketch -->
    <title>icon</title>
    <desc>Created with Sketch.</desc>
    <defs></defs>
    <g id="Symbols" stroke="none" stroke-width="1" fill="none" fill-rule="evenodd">
        <g id="Header" transform="translate(-1372.000000, -12.000000)" fill-rule="nonzero" fill="#000000">
            <g id="cart">
                <g transform="translate(1372.000000, 0.000000)">
                    <g id="icon" transform="translate(0.000000, 12.000000)">
                        <path d="M29.625,4.64545455 C29.4375,4.39090909 29.15625,4.26363636 28.84375,4.26363636 L7.53125,4.26363636 L6.8125,0.922727273 C6.71875,0.445454545 6.3125,0.127272727 5.84375,0.127272727 L1.1875,0.127272727 C0.625,0.127272727 0.1875,0.572727273 0.1875,1.14545455 C0.1875,1.71818182 0.625,2.16363636 1.1875,2.16363636 L5.0625,2.16363636 L9.125,21.0636364 C9.21875,21.5409091 9.625,21.8590909 10.09375,21.8590909 L25.875,21.8590909 C26.4375,21.8590909 26.875,21.4136364 26.875,20.8409091 C26.875,20.2681818 26.4375,19.8227273 25.875,19.8227273 L10.90625,19.8227273 L10.40625,17.5 L26.375,17.5 C26.84375,17.5 27.25,17.1818182 27.34375,16.7045455 L29.84375,5.50454545 C29.875,5.21818182 29.8125,4.9 29.625,4.64545455 Z" id="Shape"></path>
                        <ellipse id="Oval" cx="23.8125" cy="25.4545455" rx="2.375" ry="2.41818182"></ellipse>
                        <ellipse id="Oval" cx="12.21875" cy="25.4545455" rx="2.375" ry="2.41818182"></ellipse>
                    </g>
                </g>
            </g>
        </g>
    </g>
</svg>