<?xml version="1.0" encoding="UTF-8"?>
<svg width="22px" height="22px" viewBox="0 0 22 22" version="1.1" xmlns="http://www.w3.org/2000/svg" xmlns:xlink="http://www.w3.org/1999/xlink">
    <!-- Generator: Sketch 46.2 (44496) - http://www.bohemiancoding.com/sketch -->
    <title>facebook</title>
    <desc>Created with Sketch.</desc>
    <defs></defs>
    <g id="paranoia_desktop" stroke="none" stroke-width="1" fill="none" fill-rule="evenodd">
        <g id="product_details" transform="translate(-1131.000000, -1235.000000)" fill="#000000">
            <g id="section8" transform="translate(928.000000, 1220.000000)">
                <g id="facebook" transform="translate(203.000000, 15.000000)">
                    <path d="M20.7858101,0 L1.2141899,0 C0.543541631,0 0,0.543539594 0,1.21418535 L0,20.7857322 C0,21.4562955 0.543541631,22 1.2141899,22 L11.7509348,22 L11.7509348,13.4804249 L8.88386401,13.4804249 L8.88386401,10.1601679 L11.7509348,10.1601679 L11.7509348,7.71160194 C11.7509348,4.87009498 13.4864103,3.32281234 16.0212894,3.32281234 C17.2355617,3.32281234 18.279122,3.41315499 18.5832053,3.4535454 L18.5832053,6.42314768 L16.8251441,6.42397197 C15.4465893,6.42397197 15.1795994,7.07903857 15.1795994,8.04033047 L15.1795994,10.1601679 L18.467474,10.1601679 L18.0394164,13.4804249 L15.1795994,13.4804249 L15.1795994,22 L20.7858101,22 C21.4563759,22 22,21.4562955 22,20.7857322 L22,1.21418535 C22,0.543539594 21.4563759,0 20.7858101,0" id="Fill-1"></path>
                </g>
            </g>
        </g>
    </g>
</svg>