<?xml version="1.0" encoding="UTF-8"?>
<svg width="22px" height="22px" viewBox="0 0 22 22" version="1.1" xmlns="http://www.w3.org/2000/svg" xmlns:xlink="http://www.w3.org/1999/xlink">
    <!-- Generator: Sketch 46.2 (44496) - http://www.bohemiancoding.com/sketch -->
    <title>instagram</title>
    <desc>Created with Sketch.</desc>
    <defs></defs>
    <g id="paranoia_desktop" stroke="none" stroke-width="1" fill="none" fill-rule="evenodd">
        <g id="product_details" transform="translate(-1052.000000, -1235.000000)">
            <g id="section8" transform="translate(928.000000, 1220.000000)">
                <g id="instagram" transform="translate(124.000000, 15.000000)">
                    <g id="Group-3" fill="#252525">
                        <path d="M10.9965298,0.00694484127 C8.01007341,0.00694484127 7.6355496,0.0196035714 6.46269643,0.0731194444 C5.2922004,0.126504365 4.49286706,0.312413095 3.7933631,0.584270238 C3.0702877,0.865250397 2.45699405,1.24125833 1.84566468,1.8525877 C1.23429167,2.46396071 0.858327381,3.07721071 0.577303571,3.80028611 C0.305446429,4.49979008 0.119581349,5.29912341 0.0661527778,6.46961944 C0.0126369048,7.64251627 2.18253968e-05,8.01695278 2.18253968e-05,11.0034528 C2.18253968e-05,13.9899528 0.0126369048,14.3644329 0.0661527778,15.5373298 C0.119581349,16.7077821 0.305446429,17.5071591 0.577303571,18.2066194 C0.858327381,18.9296948 1.23429167,19.5429885 1.84566468,20.1543179 C2.45699405,20.7656909 3.0702877,21.1416552 3.7933631,21.4227226 C4.49286706,21.6945361 5.2922004,21.8804448 6.46269643,21.9338734 C7.6355496,21.9873456 8.01007341,22.0000044 10.9965298,22.0000044 C13.9830298,22.0000044 14.3574663,21.9873456 15.5303631,21.9338734 C16.7008591,21.8804448 17.5001925,21.6945361 18.1996964,21.4227226 C18.9228155,21.1416552 19.5360655,20.7656909 20.1473948,20.1543179 C20.7587679,19.5429885 21.1347321,18.9297385 21.415756,18.2066194 C21.6876131,17.5071591 21.8735218,16.7077821 21.9269067,15.5373298 C21.9804226,14.3644329 21.9930813,13.9899528 21.9930813,11.0034528 C21.9930813,8.01699643 21.9804226,7.64251627 21.9269067,6.46961944 C21.8735218,5.29912341 21.6876131,4.49979008 21.415756,3.80028611 C21.1347321,3.07721071 20.7587679,2.46396071 20.1473948,1.8525877 C19.5360655,1.24125833 18.9228155,0.865250397 18.1996964,0.584270238 C17.5001925,0.312413095 16.7008591,0.126504365 15.5303631,0.0731194444 C14.3574663,0.0196035714 13.9830298,0.00694484127 10.9965298,0.00694484127 M10.9965298,1.98829802 C13.932744,1.98829802 14.2805099,1.99947262 15.4400496,2.05237738 C16.5122004,2.10130992 17.0944583,2.28045278 17.4819464,2.43104802 C17.9952361,2.63053214 18.3615972,2.86882183 18.746379,3.25360357 C19.1311607,3.63842897 19.3694504,4.00474643 19.5689782,4.51803611 C19.7195298,4.90552421 19.8986726,5.48778214 19.9476052,6.55993294 C20.0004663,7.71947262 20.0116845,8.06728214 20.0116845,11.0034528 C20.0116845,13.9396671 20.0004663,14.2874766 19.9476052,15.4469726 C19.8986726,16.5191671 19.7195298,17.101425 19.5689782,17.4889131 C19.3694504,18.0021591 19.1311607,18.3685202 18.746379,18.753302 C18.3615972,19.1381274 17.9952361,19.3764171 17.4819464,19.5759012 C17.0944583,19.7264528 16.5122004,19.9056393 15.4400496,19.9545282 C14.2806845,20.0074329 13.9329623,20.0186512 10.9965298,20.0186512 C8.06009722,20.0186512 7.712375,20.0074329 6.55300992,19.9545282 C5.48085913,19.9056393 4.89855754,19.7264528 4.51106944,19.5759012 C3.99782341,19.3764171 3.6314623,19.1381274 3.24668056,18.753302 C2.86189881,18.3685202 2.62356548,18.0021591 2.42408135,17.4889131 C2.27352976,17.101425 2.0943869,16.5191671 2.04545437,15.4470163 C1.9925496,14.2874766 1.981375,13.9396671 1.981375,11.0034528 C1.981375,8.06728214 1.9925496,7.71947262 2.04545437,6.55993294 C2.0943869,5.48778214 2.27352976,4.90552421 2.42408135,4.51803611 C2.62356548,4.00474643 2.86189881,3.63842897 3.24668056,3.25364722 C3.6314623,2.86882183 3.99782341,2.63053214 4.51106944,2.43104802 C4.89855754,2.28045278 5.48085913,2.10130992 6.55296627,2.05237738 C7.7125496,1.99947262 8.06031548,1.98829802 10.9965298,1.98829802" id="Fill-1"></path>
                    </g>
                    <path d="M11.0000193,14.2456161 C9.20752602,14.2456161 7.75438393,12.792474 7.75438393,10.9999807 C7.75438393,9.20748737 9.20752602,7.75438393 11.0000193,7.75438393 C12.7925126,7.75438393 14.2456547,9.20748737 14.2456547,10.9999807 C14.2456547,12.792474 12.7925126,14.2456161 11.0000193,14.2456161 M11.0000193,6 C8.23859714,6 6,8.23855849 6,10.9999807 C6,13.7614415 8.23859714,16 11.0000193,16 C13.7614415,16 16,13.7614415 16,10.9999807 C16,8.23855849 13.7614415,6 11.0000193,6" id="Fill-4" fill="#000000"></path>
                    <path d="M18,5.5 C18,6.32844856 17.3284597,7 16.5000248,7 C15.67159,7 15,6.32844856 15,5.5 C15,4.67155144 15.67159,4 16.5000248,4 C17.3284597,4 18,4.67155144 18,5.5" id="Fill-6" fill="#000000"></path>
                </g>
            </g>
        </g>
    </g>
</svg>