<?xml version="1.0" encoding="UTF-8"?>
<svg width="129px" height="32px" viewBox="0 0 129 32" version="1.1" xmlns="http://www.w3.org/2000/svg" xmlns:xlink="http://www.w3.org/1999/xlink">
    <!-- Generator: Sketch 46.2 (44496) - http://www.bohemiancoding.com/sketch -->
    <title>LOGO</title>
    <desc>Created with Sketch.</desc>
    <defs></defs>
    <g id="Symbols" stroke="none" stroke-width="1" fill="none" fill-rule="evenodd">
        <g id="Header" transform="translate(-659.000000, -37.000000)" fill="#000000">
            <g id="LOGO">
                <path d="M664.00526,37.84375 L664.00526,63.7226562 L672.872448,63.7226562 L672.872448,68 L659.454479,68 L659.454479,37.84375 L664.00526,37.84375 Z M678.454479,52.7851562 C678.454479,48.5403434 680.010453,44.8945465 683.122448,41.8476562 C686.221421,38.800766 689.945342,37.2773438 694.294323,37.2773438 C698.591219,37.2773438 702.276078,38.8137867 705.34901,41.8867188 C708.434963,44.9596508 709.977916,48.6510201 709.977916,52.9609375 C709.977916,57.2968967 708.428453,60.9752453 705.329479,63.9960938 C702.217484,67.0299631 698.461011,68.546875 694.059948,68.546875 C690.166699,68.546875 686.67064,67.1992322 683.571666,64.5039062 C680.160191,61.5221205 678.454479,57.6159096 678.454479,52.7851562 Z M683.044323,52.84375 C683.044323,56.1771 684.164103,58.917958 686.403698,61.0664062 C688.630271,63.2148545 691.20186,64.2890625 694.118541,64.2890625 C697.28262,64.2890625 699.951864,63.1953234 702.126354,61.0078125 C704.300844,58.7942598 705.388073,56.0989742 705.388073,52.921875 C705.388073,49.7057131 704.313865,47.0104275 702.165416,44.8359375 C700.029989,42.6484266 697.386786,41.5546875 694.235729,41.5546875 C691.097692,41.5546875 688.447979,42.6484266 686.28651,44.8359375 C684.125041,46.9974066 683.044323,49.6666508 683.044323,52.84375 Z M735.208385,52.296875 L747.669323,52.296875 L747.669323,53.2929688 C747.669323,55.5586051 747.402398,57.5637934 746.868541,59.3085938 C746.347705,60.9231852 745.468808,62.4335867 744.231823,63.8398438 C741.432329,66.9909012 737.871167,68.5664062 733.548229,68.5664062 C729.329458,68.5664062 725.716213,67.042984 722.708385,63.9960938 C719.700558,60.9361826 718.196666,57.2643443 718.196666,52.9804688 C718.196666,48.6054469 719.726599,44.8945465 722.78651,41.8476562 C725.846421,38.7877451 729.570342,37.2578125 733.958385,37.2578125 C736.315168,37.2578125 738.515667,37.7395785 740.559948,38.703125 C742.513082,39.6666715 744.433636,41.2291559 746.321666,43.390625 L743.079479,46.4960938 C740.605508,43.2018064 737.591215,41.5546875 734.03651,41.5546875 C730.84639,41.5546875 728.170635,42.6549369 726.009166,44.8554688 C723.847697,47.0169379 722.766979,49.7252441 722.766979,52.9804688 C722.766979,56.3398605 723.971394,59.10676 726.38026,61.28125 C728.632876,63.2994893 731.074257,64.3085938 733.704479,64.3085938 C735.944073,64.3085938 737.955772,63.553393 739.739635,62.0429688 C741.523498,60.5195236 742.519582,58.6966252 742.727916,56.5742188 L735.208385,56.5742188 L735.208385,52.296875 Z M755.888073,52.7851562 C755.888073,48.5403434 757.444047,44.8945465 760.556041,41.8476562 C763.655015,38.800766 767.378936,37.2773438 771.727916,37.2773438 C776.024813,37.2773438 779.709672,38.8137867 782.782604,41.8867188 C785.868557,44.9596508 787.41151,48.6510201 787.41151,52.9609375 C787.41151,57.2968967 785.862046,60.9752453 782.763073,63.9960938 C779.651078,67.0299631 775.894605,68.546875 771.493541,68.546875 C767.600293,68.546875 764.104234,67.1992322 761.00526,64.5039062 C757.593785,61.5221205 755.888073,57.6159096 755.888073,52.7851562 Z M760.477916,52.84375 C760.477916,56.1771 761.597697,58.917958 763.837291,61.0664062 C766.063865,63.2148545 768.635454,64.2890625 771.552135,64.2890625 C774.716213,64.2890625 777.385458,63.1953234 779.559948,61.0078125 C781.734438,58.7942598 782.821666,56.0989742 782.821666,52.921875 C782.821666,49.7057131 781.747458,47.0104275 779.59901,44.8359375 C777.463583,42.6484266 774.82038,41.5546875 771.669323,41.5546875 C768.531286,41.5546875 765.881573,42.6484266 763.720104,44.8359375 C761.558635,46.9974066 760.477916,49.6666508 760.477916,52.84375 Z"></path>
            </g>
        </g>
    </g>
</svg>