<?xml version="1.0" encoding="UTF-8"?>
<svg width="17px" height="22px" viewBox="0 0 17 22" version="1.1" xmlns="http://www.w3.org/2000/svg" xmlns:xlink="http://www.w3.org/1999/xlink">
    <!-- Generator: Sketch 46.2 (44496) - http://www.bohemiancoding.com/sketch -->
    <title>pinterest</title>
    <desc>Created with Sketch.</desc>
    <defs></defs>
    <g id="paranoia_desktop" stroke="none" stroke-width="1" fill="none" fill-rule="evenodd">
        <g id="product_details" transform="translate(-1094.000000, -1235.000000)" fill-rule="nonzero" fill="#000000">
            <g id="section8" transform="translate(928.000000, 1220.000000)">
                <g id="pinterest" transform="translate(166.000000, 15.000000)">
                    <path d="M6.98804609,14.5506197 C6.41421294,17.5793436 5.71341975,20.4831081 3.63748108,22 C2.99678085,17.4220444 4.57864612,13.9841228 5.31309136,10.3341222 C4.06097257,8.21201356 5.46365155,3.94051635 8.10511961,4.99321073 C11.3551655,6.28790382 5.2903653,12.8834686 9.3616088,13.7075842 C13.6124756,14.5673397 15.3479604,6.28218386 12.7119553,3.58763823 C8.90359118,-0.302821013 1.62578725,3.4989787 2.5208446,9.06912899 C2.73849038,10.4311417 4.13592488,10.8440795 3.07916284,12.7235295 C0.641792326,12.1794724 -0.0858788063,10.2441427 0.00786621342,7.66355649 C0.158644917,3.44023902 3.77733379,0.483014794 7.40694866,0.0740369762 C11.9971768,-0.443400263 16.3052959,1.77044793 16.9001069,6.11762473 C17.5700888,11.0242586 14.8285387,16.3385502 9.91992705,15.9561922 C8.58957814,15.8521328 8.03082286,15.1886163 6.98804609,14.5506197 Z" id="Shape"></path>
                </g>
            </g>
        </g>
    </g>
</svg>