<?xml version="1.0" encoding="UTF-8"?>
<svg width="27px" height="35px" viewBox="0 0 27 35" version="1.1" xmlns="http://www.w3.org/2000/svg" xmlns:xlink="http://www.w3.org/1999/xlink">
    <!-- Generator: Sketch 46.2 (44496) - http://www.bohemiancoding.com/sketch -->
    <title>pinterest</title>
    <desc>Created with Sketch.</desc>
    <defs></defs>
    <g id="Symbols" stroke="none" stroke-width="1" fill="none" fill-rule="evenodd">
        <g id="Footer" transform="translate(-740.000000, -40.000000)" fill-rule="nonzero" fill="#FFFFFF">
            <g id="pinterest">
                <g transform="translate(740.000000, 40.000000)">
                    <path d="M11.0986614,23.1487132 C10.1872794,27.9671375 9.07425489,32.5867629 5.77717584,35 C4.75959312,27.7168889 7.27196736,22.247468 8.43843923,16.440649 C6.44977996,13.064567 8.67756422,6.26900328 12.872837,7.94374435 C18.0346746,10.0034834 8.40234489,20.4964274 14.8684375,21.8075204 C21.6198142,23.1753131 24.3761723,9.99438341 20.1895761,5.70760628 C14.1409978,-0.481760703 2.5821327,5.56655703 4.00369436,14.4281598 C4.34936707,16.5949982 6.56882187,17.2519447 4.8904351,20.2419787 C1.01931722,19.3764334 -0.136395751,16.2974998 0.0124933978,12.1920217 C0.251965456,5.47310753 5.99929485,0.768432627 11.7639773,0.117786099 C19.0543397,-0.70540951 25.8966464,2.8166217 26.8413463,9.7325848 C27.9054352,17.5385932 23.5512084,25.9931481 15.7551782,25.3848513 C13.6422712,25.2193022 12.7548363,24.1637078 11.0986614,23.1487132 Z" id="Shape"></path>
                </g>
            </g>
        </g>
    </g>
</svg>