<?xml version="1.0" encoding="UTF-8"?>
<svg width="11px" height="11px" viewBox="0 0 11 11" version="1.1" xmlns="http://www.w3.org/2000/svg" xmlns:xlink="http://www.w3.org/1999/xlink">
    <!-- Generator: Sketch 46.2 (44496) - http://www.bohemiancoding.com/sketch -->
    <title>icon</title>
    <desc>Created with Sketch.</desc>
    <defs></defs>
    <g id="paranoia_desktop" stroke="none" stroke-width="1" fill="none" fill-rule="evenodd">
        <g id="product_details" transform="translate(-1274.000000, -813.000000)" fill-rule="nonzero" fill="#000000">
            <g id="section6" transform="translate(928.000000, 793.000000)">
                <g id="icon" transform="translate(346.000000, 20.000000)">
                    <path d="M10.5733457,5.07355907 L5.92644093,5.07355907 L5.92644093,0.426654255 C5.92644093,0.191141106 5.73529982,0 5.49978667,0 C5.26427352,0 5.07313242,0.191141106 5.07313242,0.426654255 L5.07313242,5.07355907 L0.426654255,5.07355907 C0.191141106,5.07355907 0,5.26470018 0,5.50021333 C0,5.73572648 0.191141106,5.92686758 0.426654255,5.92686758 L5.07313242,5.92686758 L5.07313242,10.5733457 C5.07313242,10.8088589 5.26427352,11 5.49978667,11 C5.73529982,11 5.92644093,10.8088589 5.92644093,10.5733457 L5.92644093,5.92686758 L10.5733457,5.92686758 C10.8088589,5.92686758 11,5.73572648 11,5.50021333 C11,5.26470018 10.8090722,5.07355907 10.5733457,5.07355907 Z" id="Shape"></path>
                </g>
            </g>
        </g>
    </g>
</svg>