<?xml version="1.0" encoding="UTF-8"?>
<svg width="25px" height="20px" viewBox="0 0 25 20" version="1.1" xmlns="http://www.w3.org/2000/svg" xmlns:xlink="http://www.w3.org/1999/xlink">
    <!-- Generator: Sketch 46.2 (44496) - http://www.bohemiancoding.com/sketch -->
    <title>twitter</title>
    <desc>Created with Sketch.</desc>
    <defs>
        <polygon id="path-1" points="0 0 25 0 25 20 0 20"></polygon>
    </defs>
    <g id="paranoia_desktop" stroke="none" stroke-width="1" fill="none" fill-rule="evenodd">
        <g id="product_details" transform="translate(-1006.000000, -1236.000000)">
            <g id="section8" transform="translate(928.000000, 1220.000000)">
                <g id="twitter" transform="translate(78.000000, 16.000000)">
                    <mask id="mask-2" fill="white">
                        <use xlink:href="#path-1"></use>
                    </mask>
                    <g id="Clip-2"></g>
                    <path d="M7.85314126,20 C17.2869148,20 22.4489796,12.303248 22.4489796,5.6398622 C22.4489796,5.42322835 22.4489796,5.20669291 22.4389756,4.99015748 C23.4393758,4.28149606 24.3097239,3.38582677 25,2.37204724 C24.0796319,2.77559055 23.0892357,3.04133858 22.0488195,3.16929134 C23.1092437,2.5492126 23.9195678,1.55521654 24.3097239,0.374114173 C23.3193277,0.954724409 22.2188876,1.36811024 21.0484194,1.59448819 C20.1080432,0.61023622 18.777511,0 17.3069228,0 C14.4757903,0 12.1748699,2.26377953 12.1748699,5.04931102 C12.1748699,5.44301181 12.22489,5.82677165 12.304922,6.2007874 C8.04321729,5.99409449 4.26170468,3.97637795 1.73069228,0.92519685 C1.29051621,1.67322835 1.04041617,2.5394685 1.04041617,3.46456693 C1.04041617,5.21653543 1.95078031,6.76181102 3.32132853,7.66732283 C2.4809924,7.63779528 1.69067627,7.41151575 1.00040016,7.03740157 L1.00040016,7.10629921 C1.00040016,9.54724409 2.77110844,11.5945866 5.11204482,12.057185 C4.68187275,12.1751969 4.23169268,12.2343504 3.7615046,12.2343504 C3.43137255,12.2343504 3.1112445,12.2048228 2.80112045,12.1456693 C3.45138055,14.1536417 5.35214086,15.6102362 7.59303721,15.6497047 C5.83233293,17.0079724 3.62144858,17.8150591 1.2204882,17.8150591 C0.81032413,17.8150591 0.400160064,17.795374 0,17.7461614 C2.26090436,19.1633858 4.96198479,20 7.85314126,20" id="Fill-1" fill="#000000" mask="url(#mask-2)"></path>
                </g>
            </g>
        </g>
    </g>
</svg>