<?xml version="1.0" encoding="UTF-8"?>
<svg width="18px" height="17px" viewBox="0 0 18 17" version="1.1" xmlns="http://www.w3.org/2000/svg" xmlns:xlink="http://www.w3.org/1999/xlink">
    <!-- Generator: Sketch 46.2 (44496) - http://www.bohemiancoding.com/sketch -->
    <title>star</title>
    <desc>Created with Sketch.</desc>
    <defs></defs>
    <g id="paranoia_desktop" stroke="none" stroke-width="1" fill="none" fill-rule="evenodd">
        <g id="product_details" transform="translate(-1035.000000, -614.000000)" fill-rule="nonzero" fill="#000000">
            <g id="section4" transform="translate(928.000000, 552.000000)">
                <g id="secondary_cta" transform="translate(1.000000, 60.000000)">
                    <g id="star" transform="translate(105.432478, 2.060897)">
                        <path d="M14.8392809,16.9260265 C14.9641122,16.9172162 15.0799106,16.8580789 15.1598531,16.7623128 C15.2397957,16.6665467 15.2769466,16.5424606 15.2627004,16.418797 L14.6229264,10.9376347 L18.3781496,6.8828741 C18.4918991,6.76164562 18.530595,6.58859216 18.4792279,6.4308382 C18.4278608,6.27308425 18.2945127,6.15545054 18.130907,6.12356517 L12.6912034,5.03839982 L9.97446328,0.230471351 C9.89284053,0.0879816915 9.74063465,0 9.57575424,0 C9.41087384,0 9.25866796,0.0879816915 9.17704521,0.230471351 L6.46030512,5.03839982 L1.02060153,6.12356517 C0.856995831,6.15545054 0.723647692,6.27308425 0.672280589,6.4308382 C0.620913487,6.58859216 0.659609429,6.76164562 0.773358919,6.8828741 L4.52858206,10.9376347 L3.88880805,16.418797 C3.87003051,16.5822021 3.94109491,16.7430184 4.07482719,16.839752 C4.20855947,16.9364857 4.384275,16.9541746 4.53478257,16.8860549 L9.57575424,14.5835366 L14.6167488,16.8860549 C14.6864125,16.9176334 14.7629125,16.9313745 14.8392809,16.9260265 L14.8392809,16.9260265 Z M14.2582173,15.7178873 L9.76737528,13.6674622 C9.64574279,13.6118642 9.5057657,13.6118642 9.38413321,13.6674622 L4.89329122,15.7178873 L5.46508839,10.8361842 C5.4809926,10.7040218 5.43809902,10.5715389 5.34764472,10.4734427 L2.00037418,6.86135535 L6.84354719,5.89300675 C6.97450735,5.86653348 7.08735847,5.78459277 7.15261189,5.66859621 L9.57575424,1.38326807 L11.9988966,5.66859621 C12.06415,5.78459277 12.1770011,5.86653348 12.3079613,5.89300675 L17.1511343,6.86135535 L13.8038638,10.4734427 C13.7134095,10.5715389 13.6705159,10.7040218 13.6864201,10.8361842 L14.2582173,15.7178873 L14.2582173,15.7178873 Z"></path>
                    </g>
                </g>
            </g>
        </g>
    </g>
</svg>